<svg width="102" height="26" viewBox="0 0 102 26" fill="none" xmlns="http://www.w3.org/2000/svg">
<path d="M21.0001 7.03122L18.5001 7.03122C18.3031 7.03122 18.108 7.07003 17.926 7.14541C17.7441 7.22078 17.5787 7.33125 17.4393 7.47052C17.3001 7.6099 17.1896 7.77527 17.1142 7.95718C17.0388 8.13919 17 8.33426 17 8.53124L17 14.0313C16.5 16.0308 16.4065 16.6247 15 18.0313C13.5935 19.4378 12.4892 20.5312 10.5 20.5313C9.51511 20.5313 8.90995 20.4082 8 20.0312C7.09004 19.6543 6.19645 18.7277 5.5 18.0313C4.80356 17.3348 4.87691 17.4412 4.5 16.5312C4.12309 15.6213 4.00003 15.0162 4.00004 14.0312L4.00004 8.53169C4.0001 8.33471 3.96134 8.13953 3.88599 7.95751C3.81063 7.7755 3.70015 7.61001 3.56086 7.47074C3.42155 7.33136 3.25617 7.22089 3.07415 7.14541C2.89214 7.07003 2.69705 7.03122 2.50002 7.03122L-7.43095e-07 7.03122L-4.15255e-07 13.5313C-3.55061e-07 14.9102 0.271592 16.2756 0.799269 17.5495C1.32695 18.8234 2.10038 19.9809 3.07539 20.9559C4.05042 21.9309 5.20793 22.7044 6.48186 23.232C7.75578 23.7597 9.12116 24.0313 10.5 24.0312C13.2848 24.0312 15.9555 22.925 17.9247 20.9559C19.8938 18.9868 21.0001 16.3161 21.0001 13.5313L21.0001 7.03122Z" fill="#EA580C"/>
<circle cx="4.5" cy="6.46875" r="4.5" fill="#0F172A"/>
<path d="M90.8907 0.84375V24.8438H86.3907V0.84375H90.8907ZM90.2501 15.7969H89.0157C89.0262 14.6198 89.1824 13.5365 89.4845 12.5469C89.7866 11.5469 90.2189 10.6823 90.7814 9.95312C91.3439 9.21354 92.0157 8.64062 92.797 8.23438C93.5887 7.82812 94.4637 7.625 95.422 7.625C96.2553 7.625 97.0105 7.74479 97.6876 7.98438C98.3751 8.21354 98.9637 8.58854 99.4532 9.10938C99.9532 9.61979 100.339 10.2917 100.609 11.125C100.88 11.9583 101.016 12.9688 101.016 14.1562V24.8438H96.4845V14.125C96.4845 13.375 96.3751 12.7865 96.1564 12.3594C95.948 11.9219 95.6407 11.6146 95.2345 11.4375C94.8387 11.25 94.3491 11.1562 93.7657 11.1562C93.1199 11.1562 92.5678 11.276 92.1095 11.5156C91.6616 11.7552 91.3022 12.0885 91.0314 12.5156C90.7605 12.9323 90.5626 13.4219 90.4376 13.9844C90.3126 14.5469 90.2501 15.151 90.2501 15.7969Z" fill="#0F172A"/>
<path d="M76.797 21.6406C77.3491 21.6406 77.8387 21.5365 78.2657 21.3281C78.6928 21.1094 79.0262 20.8073 79.2657 20.4219C79.5157 20.026 79.646 19.5625 79.6564 19.0312H83.8907C83.8803 20.2188 83.5626 21.276 82.9376 22.2031C82.3126 23.1198 81.4741 23.8438 80.422 24.375C79.3699 24.8958 78.1928 25.1562 76.8907 25.1562C75.5782 25.1562 74.4324 24.9375 73.4532 24.5C72.4845 24.0625 71.6772 23.4583 71.0314 22.6875C70.3855 21.9062 69.9012 21 69.5782 19.9688C69.2553 18.9271 69.0939 17.8125 69.0939 16.625V16.1719C69.0939 14.974 69.2553 13.8594 69.5782 12.8281C69.9012 11.7865 70.3855 10.8802 71.0314 10.1094C71.6772 9.32812 72.4845 8.71875 73.4532 8.28125C74.422 7.84375 75.5574 7.625 76.8595 7.625C78.2449 7.625 79.4585 7.89062 80.5001 8.42188C81.5522 8.95312 82.3751 9.71354 82.9689 10.7031C83.573 11.6823 83.8803 12.8438 83.8907 14.1875H79.6564C79.646 13.625 79.5262 13.1146 79.297 12.6562C79.0782 12.1979 78.7553 11.8333 78.3282 11.5625C77.9116 11.2812 77.396 11.1406 76.7814 11.1406C76.1251 11.1406 75.5887 11.2812 75.172 11.5625C74.7553 11.8333 74.4324 12.2083 74.2032 12.6875C73.9741 13.1562 73.8126 13.6927 73.7189 14.2969C73.6355 14.8906 73.5939 15.5156 73.5939 16.1719V16.625C73.5939 17.2812 73.6355 17.9115 73.7189 18.5156C73.8022 19.1198 73.9585 19.6562 74.1876 20.125C74.4272 20.5938 74.7553 20.9635 75.172 21.2344C75.5887 21.5052 76.1303 21.6406 76.797 21.6406Z" fill="#0F172A"/>
<path d="M61.8126 21.0312V13.5C61.8126 12.9583 61.7241 12.4948 61.547 12.1094C61.3699 11.7135 61.0939 11.4062 60.7189 11.1875C60.3543 10.9688 59.8803 10.8594 59.297 10.8594C58.797 10.8594 58.3647 10.9479 58.0001 11.125C57.6355 11.2917 57.3543 11.5365 57.1564 11.8594C56.9585 12.1719 56.8595 12.5417 56.8595 12.9688H52.3595C52.3595 12.25 52.5262 11.5677 52.8595 10.9219C53.1928 10.276 53.6772 9.70833 54.3126 9.21875C54.948 8.71875 55.7032 8.32812 56.5782 8.04688C57.4637 7.76562 58.4532 7.625 59.547 7.625C60.8595 7.625 62.0262 7.84375 63.047 8.28125C64.0678 8.71875 64.8699 9.375 65.4532 10.25C66.047 11.125 66.3439 12.2188 66.3439 13.5312V20.7656C66.3439 21.6927 66.4012 22.4531 66.5157 23.0469C66.6303 23.6302 66.797 24.1406 67.0157 24.5781V24.8438H62.4689C62.2501 24.3854 62.0835 23.8125 61.9689 23.125C61.8647 22.4271 61.8126 21.7292 61.8126 21.0312ZM62.4064 14.5469L62.4376 17.0938H59.922C59.3282 17.0938 58.8126 17.1615 58.3751 17.2969C57.9376 17.4323 57.5782 17.625 57.297 17.875C57.0157 18.1146 56.8074 18.3958 56.672 18.7188C56.547 19.0417 56.4845 19.3958 56.4845 19.7812C56.4845 20.1667 56.573 20.5156 56.7501 20.8281C56.9272 21.1302 57.1824 21.3698 57.5157 21.5469C57.8491 21.7135 58.2397 21.7969 58.6876 21.7969C59.3647 21.7969 59.9532 21.6615 60.4532 21.3906C60.9532 21.1198 61.3387 20.7865 61.6095 20.3906C61.8907 19.9948 62.0366 19.6198 62.047 19.2656L63.2345 21.1719C63.0678 21.599 62.8387 22.0417 62.547 22.5C62.2657 22.9583 61.9064 23.3906 61.4689 23.7969C61.0314 24.1927 60.5053 24.5208 59.8907 24.7812C59.2762 25.0312 58.547 25.1562 57.7032 25.1562C56.6303 25.1562 55.6564 24.9427 54.7814 24.5156C53.9168 24.0781 53.2293 23.4792 52.7189 22.7188C52.2189 21.9479 51.9689 21.0729 51.9689 20.0938C51.9689 19.2083 52.1355 18.4219 52.4689 17.7344C52.8022 17.0469 53.2918 16.4688 53.9376 16C54.5939 15.5208 55.4116 15.1615 56.3907 14.9219C57.3699 14.6719 58.5053 14.5469 59.797 14.5469H62.4064Z" fill="#0F172A"/>
<path d="M43.1876 25.1562C41.8751 25.1562 40.698 24.9479 39.6564 24.5312C38.6147 24.1042 37.7293 23.5156 37.0001 22.7656C36.2814 22.0156 35.7293 21.1458 35.3439 20.1562C34.9585 19.1562 34.7657 18.0938 34.7657 16.9688V16.3438C34.7657 15.0625 34.948 13.8906 35.3126 12.8281C35.6772 11.7656 36.198 10.8438 36.8751 10.0625C37.5626 9.28125 38.396 8.68229 39.3751 8.26562C40.3543 7.83854 41.4585 7.625 42.6876 7.625C43.8855 7.625 44.948 7.82292 45.8751 8.21875C46.8022 8.61458 47.5782 9.17708 48.2032 9.90625C48.8387 10.6354 49.3178 11.5104 49.6407 12.5312C49.9637 13.5417 50.1251 14.6667 50.1251 15.9062V17.7812H36.6876V14.7812H45.7032V14.4375C45.7032 13.8125 45.5887 13.2552 45.3595 12.7656C45.1407 12.2656 44.8074 11.8698 44.3595 11.5781C43.9116 11.2865 43.3387 11.1406 42.6407 11.1406C42.047 11.1406 41.5366 11.2708 41.1095 11.5312C40.6824 11.7917 40.3335 12.1562 40.0626 12.625C39.8022 13.0938 39.6043 13.6458 39.4689 14.2812C39.3439 14.9062 39.2814 15.5938 39.2814 16.3438V16.9688C39.2814 17.6458 39.3751 18.2708 39.5626 18.8438C39.7605 19.4167 40.0366 19.9115 40.3907 20.3281C40.7553 20.7448 41.1928 21.0677 41.7032 21.2969C42.2241 21.526 42.8126 21.6406 43.4689 21.6406C44.2814 21.6406 45.0366 21.4844 45.7345 21.1719C46.4428 20.849 47.0522 20.3646 47.5626 19.7188L49.7501 22.0938C49.396 22.6042 48.9116 23.0938 48.297 23.5625C47.6928 24.0312 46.9637 24.4167 46.1095 24.7188C45.2553 25.0104 44.2814 25.1562 43.1876 25.1562Z" fill="#0F172A"/>
<path d="M32.8439 7.9375V11.125H23.0001V7.9375H32.8439ZM25.4376 3.76562H29.9376V19.75C29.9376 20.2396 30.0001 20.6146 30.1251 20.875C30.2605 21.1354 30.4585 21.3177 30.7189 21.4219C30.9793 21.5156 31.3074 21.5625 31.7032 21.5625C31.9845 21.5625 32.2345 21.5521 32.4532 21.5312C32.6824 21.5 32.8751 21.4688 33.0314 21.4375L33.047 24.75C32.6616 24.875 32.2449 24.974 31.797 25.0469C31.3491 25.1198 30.8543 25.1562 30.3126 25.1562C29.323 25.1562 28.4585 24.9948 27.7189 24.6719C26.9897 24.3385 26.4272 23.8073 26.0314 23.0781C25.6355 22.349 25.4376 21.3906 25.4376 20.2031V3.76562Z" fill="#0F172A"/>
</svg>
